<?xml version="1.0" standalone="no"?>
<!DOCTYPE svg PUBLIC "-//W3C//DTD SVG 20010904//EN"
 "http://www.w3.org/TR/2001/REC-SVG-20010904/DTD/svg10.dtd">
<svg version="1.0" xmlns="http://www.w3.org/2000/svg"
 width="1024.000000pt" height="1024.000000pt" viewBox="0 0 1024.000000 1024.000000"
 preserveAspectRatio="xMidYMid meet">

<g transform="translate(0.000000,1024.000000) scale(0.100000,-0.100000)"
fill="#00a3e4" stroke="none">
<path d="M4960 8045 c-573 -79 -1081 -441 -1330 -950 -70 -142 -113 -272 -147
-440 -14 -71 -18 -140 -18 -325 0 -212 2 -245 24 -340 124 -548 495 -996 991
-1197 l105 -42 3 -1401 2 -1400 613 2 612 3 3 160 c2 88 0 193 -3 233 l-7 72
-244 0 -244 0 0 220 0 220 250 0 250 0 -2 233 -3 232 -247 -3 -248 -3 0 232 0
232 251 -6 250 -7 -3 232 -3 233 -247 3 -248 2 0 209 0 209 68 6 c173 16 423
84 577 157 487 232 802 640 927 1199 20 92 23 131 23 320 0 230 -9 301 -62
484 -87 304 -270 587 -526 812 -147 130 -407 279 -592 338 -250 80 -525 105
-775 71z m451 -844 c302 -78 543 -312 635 -616 24 -80 28 -107 28 -235 1 -164
-10 -217 -74 -356 -164 -355 -519 -559 -899 -515 -143 17 -202 34 -316 91
-221 111 -375 297 -452 547 -24 78 -27 104 -26 228 0 170 19 250 94 404 46 93
62 116 153 206 80 81 120 112 189 150 95 51 193 88 291 111 83 19 277 11 377
-15z"/>
</g>
</svg>
